<svg
xmlns="http://www.w3.org/2000/svg"
fill="#84AEF4"
width="20px"
height="20px"
stroke-width="1"
fill-rule="evenodd"
viewBox="0 0 25 25"
class=""
style="vertical-align: middle;"
>
<path
  d="M20.1285281,5.54519473 C20.5177813,5.93444793 20.3838487,6.25 19.8291627,6.25 L15.587504,6.25 C15.0329158,6.25 14.5833333,5.80051541 14.5833333,5.24582937 L14.5833333,1.00417063 C14.5833333,0.449582503 14.9018643,0.318530947 15.2881386,0.704805274 L20.1285281,5.54519473 Z M13.5051947,8.33333333 C12.950041,8.33333333 12.5,7.88529714 12.5,7.32813862 L12.5,1.00519471 C12.5,0.450041001 12.0551184,0 11.4982026,0 L2.00834125,0 C0.899165006,0 0,0.889763236 0,2.00359486 L0,22.9964051 C0,24.10296 0.895182292,25 1.99758758,25 L18.8357458,25 C19.9389829,25 20.8333333,24.1039276 20.8333333,23.0061652 L20.8333333,9.32599703 C20.8333333,8.77776401 20.3852971,8.33333333 19.8281386,8.33333333 L13.5051947,8.33333333 Z"
  id="Shape"
></path>
</svg>