<svg xmlns="http://www.w3.org/2000/svg" fill="#84AEF4" width="26px" height="26px" viewBox="0 0 25 25" class=""><g id="Group-3" transform="translate(1.000000, 0.000000)"><path d="M11.4855582,0.628325409 C11.4855474,0.405939565 11.3614305,0.202626774 11.1649094,0.10307833 C10.9683882,0.00352988587 10.7331613,0.0248159005 10.557214,0.158069543 L5.91433227,3.68168515 C5.76804852,3.79269829 5.68195604,3.96692763 5.68195604,4.15195569 C5.68195604,4.33698376 5.76804852,4.5112131 5.91433227,4.62222624 L10.557214,8.14584184 C10.7331655,8.27909866 10.968399,8.30038227 11.1649223,8.20082648 C11.3614457,8.1012707 11.4855583,7.89794775 11.4855582,7.67555662 L11.4855582,5.03284491 C16.4536817,5.03284491 20.4811416,9.10825072 20.4811416,14.1355186 C20.4811416,19.1627864 16.4536817,23.2381922 11.4855582,23.2381922 C6.5174347,23.2381922 2.48997484,19.1627864 2.48997484,14.1355186 L2.48997484,13.5482493 C2.48997484,13.0617395 2.10022066,12.6673454 1.61943452,12.6673454 C1.13864837,12.6673454 0.748894191,13.0617395 0.748894191,13.5482493 L0.748894191,14.1355186 C0.748894191,20.135806 5.55586241,25 11.4855582,25 C17.415254,25 22.2222222,20.135806 22.2222222,14.1355186 C22.2222222,8.13523114 17.415254,3.27103711 11.4855582,3.27103711 L11.4855582,0.628325409 Z" id="Shape" transform="translate(11.485558, 12.520467) scale(-1, 1) translate(-11.485558, -12.520467) "></path><text id="5" font-family="ArialMT, Arial" font-size="11" font-weight="600"><tspan x="8" y="19">5</tspan></text></g></svg>
