<svg xmlns="http://www.w3.org/2000/svg" fill="#FFFFFF" width="20px" height="20px" viewBox="0 0 25 25" class="">
  <path d="M12.4993355,5.98555565 C16.0960192,5.98555565 18.6354675,8.76235522 18.2979855,12.7165893 C20.1155972,12.6709215 22.9154483,13.4621654 22.9154483,16.4097228 C22.9154483,18.325784 21.2801186,19.8844452 19.2698088,19.8844452 L5.72886208,19.8844452 C3.7185523,19.8844452 2.08322258,18.325784 2.08322258,16.4097228 C2.08322258,13.6329232 4.66537696,12.6044054 6.70068541,12.7165893 C6.52673633,8.52905243 9.00056314,5.98555565 12.4993355,5.98555565 L12.4993355,5.98555565 Z M12.4993355,4 C8.32664063,4 4.92994623,7.11831515 4.70912463,11.0407803 C2.03218362,11.5004365 0,13.7272371 0,16.4097228 C0,19.4247891 2.5654886,21.8700008 5.72886208,21.8700008 L19.2698088,21.8700008 C22.4331823,21.8700008 24.9986709,19.4247891 24.9986709,16.4097228 C24.9986709,13.7272371 22.9664873,11.5004365 20.2895463,11.0407803 C20.0687247,7.11831515 16.6720303,4 12.4993355,4 L12.4993355,4 Z M16.6657806,13.9277782 L13.5409467,13.9277782 L13.5409467,17.8988895 L11.4577242,17.8988895 L11.4577242,13.9277782 L8.3328903,13.9277782 L12.4993355,9.95666695 L16.6657806,13.9277782 Z" id="Shape"></path>
</svg>